<?xml version="1.0" standalone="no"?>
<!DOCTYPE svg PUBLIC "-//W3C//DTD SVG 20010904//EN"
 "http://www.w3.org/TR/2001/REC-SVG-20010904/DTD/svg10.dtd">
<svg version="1.0" xmlns="http://www.w3.org/2000/svg"
 width="1024.000000pt" height="1024.000000pt" viewBox="0 0 1024.000000 1024.000000"
 preserveAspectRatio="xMidYMid meet">
<metadata>
Created by potrace 1.11, written by Peter Selinger 2001-2013
</metadata>
<g transform="translate(0.000000,1024.000000) scale(0.100000,-0.100000)"
fill="#000000" stroke="none">
<path d="M4366 7203 c-3 -3 -74 -6 -157 -6 -103 1 -152 -3 -155 -11 -2 -6 -5
-672 -7 -1481 -2 -1383 -3 -1473 -20 -1523 -11 -33 -22 -50 -29 -46 -7 4 -8 2
-4 -5 19 -29 -92 -153 -171 -192 -44 -22 -63 -24 -233 -27 -273 -5 -307 7
-391 138 -19 29 -69 171 -69 194 0 20 -57 22 -531 18 l-365 -2 8 -78 c4 -42
10 -93 13 -112 3 -19 8 -51 11 -70 9 -65 10 -69 17 -76 4 -4 7 -17 7 -29 0
-11 5 -26 11 -32 5 -5 11 -24 11 -41 1 -17 5 -29 10 -26 4 3 8 -1 8 -9 0 -8
11 -35 25 -61 14 -26 23 -52 20 -57 -4 -5 -2 -9 2 -9 13 0 45 -59 38 -69 -3
-5 0 -13 6 -17 8 -4 9 -3 5 4 -4 7 -5 12 -3 12 2 0 16 -18 31 -40 14 -22 24
-40 21 -40 -2 0 10 -15 28 -33 74 -77 102 -111 99 -121 -2 -6 0 -8 3 -4 7 7
116 -77 123 -94 2 -5 10 -8 18 -8 8 0 14 -4 14 -9 0 -5 9 -11 21 -14 12 -3 18
-10 14 -16 -3 -6 -11 -8 -17 -5 -7 4 -8 2 -4 -5 6 -9 11 -9 22 -1 10 9 20 7
41 -7 15 -10 54 -31 86 -46 32 -16 56 -31 53 -35 -2 -4 12 -7 31 -8 19 0 39
-7 44 -15 5 -8 9 -11 9 -6 0 4 15 1 33 -6 17 -8 38 -12 45 -10 6 3 12 1 12 -4
0 -4 21 -9 47 -11 29 -2 52 -9 60 -20 12 -16 13 -16 7 1 -5 15 -3 16 18 8 13
-5 36 -7 51 -6 23 3 27 0 23 -13 -5 -15 -4 -15 6 -2 9 10 32 15 73 15 44 0 62
-4 67 -15 6 -13 7 -13 7 0 1 15 41 23 41 9 0 -3 18 -3 40 1 22 4 40 4 40 -1 0
-5 6 -6 13 -4 6 3 57 7 112 10 55 2 109 6 120 8 11 3 26 -1 34 -7 11 -8 13 -8
7 2 -7 12 5 15 57 15 9 0 17 4 17 9 0 6 9 8 20 5 11 -3 20 -2 20 3 0 7 41 18
83 23 9 1 17 4 17 7 0 3 17 12 38 20 20 7 37 11 37 9 0 -2 14 6 30 17 17 12
48 30 70 40 22 10 44 20 49 22 5 3 5 -2 1 -9 -5 -8 -4 -11 1 -6 5 5 9 14 9 20
0 7 12 11 25 9 19 -1 21 0 10 7 -12 8 -11 11 5 17 11 4 22 10 25 14 3 3 21 17
40 30 19 14 45 35 58 47 13 13 28 21 33 17 5 -3 8 -1 7 4 -4 14 95 121 106
115 5 -3 6 -2 3 4 -3 5 6 25 21 44 82 101 168 268 205 397 13 45 26 80 29 77
3 -3 3 6 0 21 -3 15 -1 25 4 22 5 -3 10 31 12 76 1 44 7 82 12 84 5 2 5 13 0
27 -5 12 -6 25 -3 28 2 3 5 457 5 1009 0 738 3 1007 12 1017 8 11 8 13 0 8 -9
-5 -12 65 -11 273 0 196 4 277 11 273 6 -4 5 1 -3 10 -11 14 -11 20 0 34 10
11 10 14 2 9 -9 -5 -13 0 -13 14 0 14 4 19 13 14 9 -6 9 -4 1 7 -6 8 -12 48
-12 89 0 41 -1 100 -1 131 l-1 56 -112 1 c-62 1 -131 1 -153 1 -22 1 -99 0
-171 0 -73 -1 -136 1 -141 4 -6 4 -13 4 -17 0z"/>
<path d="M5210 7202 c0 -4 -34 -6 -75 -6 l-75 2 0 -67 c0 -36 -1 -240 -2 -453
-1 -214 2 -391 5 -394 4 -4 43 -7 87 -7 44 1 80 -3 80 -8 0 -5 5 -9 11 -9 5 0
7 5 4 10 -3 6 1 10 10 10 11 0 15 -5 12 -14 -6 -15 17 -16 30 -1 4 4 2 5 -4 1
-7 -4 -13 -3 -13 1 0 13 763 12 772 -1 5 -8 8 -7 8 2 0 6 4 12 8 12 11 0 9
-222 -2 -239 -6 -10 -6 -12 3 -7 14 9 11 -30 -3 -53 -6 -9 -5 -12 1 -8 6 4 10
-21 11 -64 1 -53 -2 -68 -11 -63 -8 5 -8 2 1 -9 15 -18 7 -41 -10 -31 -7 4 -8
2 -4 -5 4 -6 11 -9 16 -6 5 3 8 -30 6 -72 -2 -56 -6 -77 -15 -75 -7 1 -10 -2
-6 -8 3 -6 10 -8 14 -5 5 2 8 -102 7 -233 -1 -189 -4 -236 -14 -234 -8 1 -11
-2 -7 -8 3 -6 10 -8 15 -5 5 3 8 -30 6 -72 -2 -56 -6 -77 -15 -75 -7 1 -10 -2
-6 -8 3 -6 10 -8 14 -5 5 2 8 -102 7 -233 -1 -189 -4 -236 -14 -234 -8 1 -11
-2 -7 -8 3 -6 10 -8 15 -5 4 2 7 -138 6 -313 -1 -254 -4 -316 -15 -314 -7 1
-10 -2 -6 -8 3 -6 10 -8 15 -5 12 7 7 -276 -4 -294 -6 -9 -5 -12 0 -8 6 3 10
-37 11 -104 1 -80 -2 -107 -10 -102 -9 5 -9 3 0 -8 8 -10 11 -61 10 -163 -1
-81 0 -152 3 -156 3 -5 121 -8 263 -7 166 1 257 -2 257 -8 0 -7 3 -7 8 0 11
16 57 11 54 -6 -2 -11 1 -10 10 2 10 12 19 14 36 8 12 -5 22 -5 22 -1 0 4 54
6 120 5 127 -2 127 -2 121 46 -2 8 2 10 10 5 8 -5 9 -3 3 7 -13 20 -12 759 1
751 5 -3 4 1 -2 9 -10 12 -10 18 -1 27 7 7 8 12 2 12 -5 0 -10 18 -10 40 0 23
3 37 9 33 6 -4 7 -1 1 8 -12 19 -12 239 0 232 5 -4 6 -1 0 8 -13 21 -12 239 1
231 7 -4 6 -1 -1 9 -12 17 -12 48 0 68 6 9 5 12 0 8 -6 -3 -10 13 -10 38 0 25
4 41 10 38 5 -4 6 -1 0 8 -12 19 -12 239 0 232 5 -4 6 -1 0 8 -13 21 -12 239
1 231 7 -4 6 -1 -1 9 -12 17 -12 48 0 68 6 9 5 12 0 8 -6 -3 -10 13 -10 38 0
25 4 41 10 38 5 -4 6 -1 0 8 -12 19 -12 239 0 232 5 -4 6 -1 0 8 -12 19 -12
239 0 232 5 -4 6 -1 0 8 -13 21 -15 101 -2 93 7 -5 8 -2 2 7 -13 21 -13 179 0
171 7 -4 7 -1 0 9 -12 15 -12 67 0 87 4 7 2 12 -4 12 -8 0 -7 6 1 21 6 12 7
19 2 16 -5 -3 -9 3 -9 14 0 13 5 18 16 14 13 -4 13 -4 0 8 -17 14 -26 42 -10
32 5 -3 10 -1 10 4 0 6 -4 11 -9 11 -4 0 -8 10 -7 23 1 18 7 22 36 22 19 0 41
-4 49 -10 11 -7 13 -7 8 1 -4 7 3 12 19 12 19 0 24 -5 20 -17 -5 -13 -4 -13 8
2 15 19 31 23 20 5 -5 -9 -2 -9 9 1 14 11 20 11 34 0 9 -8 14 -9 10 -3 -4 8
37 11 141 10 145 -1 147 -1 146 -23 -1 -13 2 -20 7 -18 4 3 6 13 4 23 -3 16
12 17 204 17 165 0 205 -3 203 -13 -1 -8 2 -11 8 -7 6 3 8 11 5 16 -4 5 15 8
44 6 46 -4 51 -2 52 17 1 12 2 32 3 46 0 14 5 31 10 39 6 9 5 12 -1 8 -15 -9
-14 433 1 452 7 10 7 13 0 8 -8 -4 -11 40 -12 151 0 86 -1 167 -1 178 -1 21
-4 21 -199 21 -110 0 -204 3 -209 6 -6 4 -13 3 -17 0 -6 -6 -355 -8 -381 -3
-5 1 -12 1 -15 0 -16 -6 -100 -4 -100 3 0 5 -5 5 -11 1 -16 -9 -110 -11 -116
-1 -2 4 -10 4 -16 0 -10 -6 -355 -9 -382 -3 -5 1 -12 1 -15 0 -16 -6 -100 -4
-100 3 0 5 -5 5 -11 1 -16 -9 -110 -11 -116 -1 -2 4 -10 4 -16 0 -10 -6 -355
-9 -382 -3 -5 1 -12 1 -15 0 -16 -6 -100 -4 -100 3 0 5 -5 5 -11 1 -16 -9
-110 -11 -116 -1 -2 4 -9 4 -16 0 -15 -9 -267 -10 -267 -1 0 4 -8 4 -17 1 -21
-8 -66 -9 -79 0 -5 3 -16 2 -24 -3 -7 -4 -24 -4 -37 1 -12 5 -23 5 -23 1z"/>
<path d="M4996 6942 c-3 -4 4 -9 15 -9 23 -2 25 3 4 10 -8 4 -16 3 -19 -1z"/>
<path d="M5010 6721 c0 -6 4 -13 10 -16 6 -3 7 1 4 9 -7 18 -14 21 -14 7z"/>
<path d="M4995 6661 c-3 -5 -2 -12 3 -15 5 -3 9 1 9 9 0 17 -3 19 -12 6z"/>
<path d="M4970 6521 c0 -6 4 -12 8 -15 5 -3 9 1 9 9 0 8 -4 15 -9 15 -4 0 -8
-4 -8 -9z"/>
<path d="M4970 6480 c0 -5 5 -10 11 -10 5 0 7 5 4 10 -3 6 -8 10 -11 10 -2 0
-4 -4 -4 -10z"/>
<path d="M8010 6479 c0 -5 5 -7 10 -4 6 3 10 8 10 11 0 2 -4 4 -10 4 -5 0 -10
-5 -10 -11z"/>
<path d="M4993 6265 c0 -8 4 -12 9 -9 5 3 6 10 3 15 -9 13 -12 11 -12 -6z"/>
<path d="M5135 6260 c3 -5 8 -10 11 -10 2 0 4 5 4 10 0 6 -5 10 -11 10 -5 0
-7 -4 -4 -10z"/>
<path d="M5958 6263 c7 -3 16 -2 19 1 4 3 -2 6 -13 5 -11 0 -14 -3 -6 -6z"/>
<path d="M7720 6260 c-9 -6 -10 -10 -3 -10 6 0 15 5 18 10 8 12 4 12 -15 0z"/>
<path d="M7790 6256 c7 -7 13 -7 20 0 6 6 3 10 -10 10 -13 0 -16 -4 -10 -10z"/>
<path d="M5835 6249 c-4 -6 -5 -12 -2 -15 2 -3 7 2 10 11 7 17 1 20 -8 4z"/>
<path d="M5933 6245 c0 -8 4 -15 9 -15 4 0 8 4 8 9 0 6 -4 12 -8 15 -5 3 -9
-1 -9 -9z"/>
<path d="M7749 6243 c-13 -16 -12 -17 4 -4 16 13 21 21 13 21 -2 0 -10 -8 -17
-17z"/>
<path d="M5030 6236 c7 -7 13 -7 20 0 6 6 3 10 -10 10 -13 0 -16 -4 -10 -10z"/>
<path d="M5630 6239 c0 -5 5 -7 10 -4 6 3 10 8 10 11 0 2 -4 4 -10 4 -5 0 -10
-5 -10 -11z"/>
<path d="M5710 6241 c0 -6 4 -12 8 -15 5 -3 9 1 9 9 0 8 -4 15 -9 15 -4 0 -8
-4 -8 -9z"/>
<path d="M5854 6238 c-4 -7 -4 -10 1 -6 4 4 15 2 24 -5 14 -11 14 -10 2 6 -16
20 -18 21 -27 5z"/>
<path d="M6991 6247 c2 -1 13 -9 24 -17 19 -14 19 -14 6 3 -7 9 -18 17 -24 17
-6 0 -8 -1 -6 -3z"/>
<path d="M7152 6245 c3 -3 16 -8 28 -10 12 -2 20 -1 16 2 -4 4 -16 8 -28 10
-12 2 -19 1 -16 -2z"/>
<path d="M7550 6241 c0 -6 4 -12 8 -15 5 -3 9 1 9 9 0 8 -4 15 -9 15 -4 0 -8
-4 -8 -9z"/>
<path d="M7633 6233 c0 -9 4 -10 14 -2 7 6 13 12 13 14 0 1 -6 2 -13 2 -8 0
-14 -6 -14 -14z"/>
<path d="M7690 6241 c0 -6 4 -13 10 -16 6 -3 7 1 4 9 -7 18 -14 21 -14 7z"/>
<path d="M7830 6241 c0 -6 4 -13 10 -16 6 -3 7 1 4 9 -7 18 -14 21 -14 7z"/>
<path d="M5473 6225 c0 -8 4 -12 9 -9 5 3 6 10 3 15 -9 13 -12 11 -12 -6z"/>
<path d="M7435 6231 c-3 -5 -2 -12 3 -15 5 -3 9 1 9 9 0 17 -3 19 -12 6z"/>
<path d="M5130 6220 c0 -5 5 -10 11 -10 5 0 7 5 4 10 -3 6 -8 10 -11 10 -2 0
-4 -4 -4 -10z"/>
<path d="M5170 6220 c0 -5 5 -10 11 -10 5 0 7 5 4 10 -3 6 -8 10 -11 10 -2 0
-4 -4 -4 -10z"/>
<path d="M5785 6220 c-3 -6 1 -7 9 -4 18 7 21 14 7 14 -6 0 -13 -4 -16 -10z"/>
<path d="M5829 6203 c-13 -16 -12 -17 4 -4 16 13 21 21 13 21 -2 0 -10 -8 -17
-17z"/>
<path d="M7950 6216 c0 -2 8 -10 18 -17 15 -13 16 -12 3 4 -13 16 -21 21 -21
13z"/>
<path d="M5615 6200 c3 -5 8 -10 11 -10 2 0 4 5 4 10 0 6 -5 10 -11 10 -5 0
-7 -4 -4 -10z"/>
<path d="M5945 6200 c-3 -6 1 -7 9 -4 18 7 21 14 7 14 -6 0 -13 -4 -16 -10z"/>
<path d="M7006 6198 c3 -5 10 -6 15 -3 13 9 11 12 -6 12 -8 0 -12 -4 -9 -9z"/>
<path d="M5295 6191 c-3 -5 -2 -12 3 -15 5 -3 9 1 9 9 0 17 -3 19 -12 6z"/>
<path d="M5176 6182 c-3 -5 1 -9 9 -9 8 0 12 4 9 9 -3 4 -7 8 -9 8 -2 0 -6 -4
-9 -8z"/>
<path d="M6030 6178 c0 -4 4 -8 9 -8 6 0 12 4 15 8 3 5 -1 9 -9 9 -8 0 -15 -4
-15 -9z"/>
<path d="M7330 6179 c0 -5 5 -7 10 -4 6 3 10 8 10 11 0 2 -4 4 -10 4 -5 0 -10
-5 -10 -11z"/>
<path d="M7575 6180 c3 -5 8 -10 11 -10 2 0 4 5 4 10 0 6 -5 10 -11 10 -5 0
-7 -4 -4 -10z"/>
<path d="M7610 6179 c0 -5 5 -7 10 -4 6 3 10 8 10 11 0 2 -4 4 -10 4 -5 0 -10
-5 -10 -11z"/>
<path d="M7730 6179 c0 -5 5 -7 10 -4 6 3 10 8 10 11 0 2 -4 4 -10 4 -5 0 -10
-5 -10 -11z"/>
<path d="M7773 6175 c0 -8 4 -12 9 -9 5 3 6 10 3 15 -9 13 -12 11 -12 -6z"/>
<path d="M5589 6163 c-13 -16 -12 -17 4 -4 16 13 21 21 13 21 -2 0 -10 -8 -17
-17z"/>
<path d="M7226 6162 c-2 -4 4 -8 14 -8 10 0 16 4 14 8 -3 4 -9 8 -14 8 -5 0
-11 -4 -14 -8z"/>
<path d="M4970 6139 c0 -5 5 -7 10 -4 6 3 10 8 10 11 0 2 -4 4 -10 4 -5 0 -10
-5 -10 -11z"/>
<path d="M5395 6141 c-3 -5 -2 -12 3 -15 5 -3 9 1 9 9 0 17 -3 19 -12 6z"/>
<path d="M5470 6140 c0 -5 5 -10 11 -10 5 0 7 5 4 10 -3 6 -8 10 -11 10 -2 0
-4 -4 -4 -10z"/>
<path d="M5814 6138 c-4 -7 -4 -10 1 -6 4 4 15 2 24 -5 14 -11 14 -10 2 6 -16
20 -18 21 -27 5z"/>
<path d="M7555 6140 c-3 -5 -1 -10 4 -10 6 0 11 5 11 10 0 6 -2 10 -4 10 -3 0
-8 -4 -11 -10z"/>
<path d="M6030 6119 c0 -5 5 -7 10 -4 6 3 10 8 10 11 0 2 -4 4 -10 4 -5 0 -10
-5 -10 -11z"/>
<path d="M7010 6099 c0 -5 5 -7 10 -4 6 3 10 8 10 11 0 2 -4 4 -10 4 -5 0 -10
-5 -10 -11z"/>
<path d="M6035 6089 c-4 -6 -5 -12 -2 -15 2 -3 7 2 10 11 7 17 1 20 -8 4z"/>
<path d="M4986 6078 c3 -5 10 -6 15 -3 13 9 11 12 -6 12 -8 0 -12 -4 -9 -9z"/>
<path d="M7815 6080 c-3 -5 -1 -10 4 -10 6 0 11 5 11 10 0 6 -2 10 -4 10 -3 0
-8 -4 -11 -10z"/>
<path d="M7010 6060 c0 -5 5 -10 11 -10 5 0 7 5 4 10 -3 6 -8 10 -11 10 -2 0
-4 -4 -4 -10z"/>
<path d="M5036 5953 c-6 -14 -5 -15 5 -6 7 7 10 15 7 18 -3 3 -9 -2 -12 -12z"/>
<path d="M6056 5873 c-6 -14 -5 -15 5 -6 7 7 10 15 7 18 -3 3 -9 -2 -12 -12z"/>
<path d="M6055 4840 c-3 -5 -1 -10 4 -10 6 0 11 5 11 10 0 6 -2 10 -4 10 -3 0
-8 -4 -11 -10z"/>
<path d="M5990 4360 c0 -5 5 -10 11 -10 5 0 7 5 4 10 -3 6 -8 10 -11 10 -2 0
-4 -4 -4 -10z"/>
<path d="M6055 4320 c-3 -5 -1 -10 4 -10 6 0 11 5 11 10 0 6 -2 10 -4 10 -3 0
-8 -4 -11 -10z"/>
<path d="M6050 3840 c0 -5 5 -10 11 -10 5 0 7 5 4 10 -3 6 -8 10 -11 10 -2 0
-4 -4 -4 -10z"/>
<path d="M2330 3699 c0 -5 5 -7 10 -4 6 3 10 8 10 11 0 2 -4 4 -10 4 -5 0 -10
-5 -10 -11z"/>
<path d="M4855 3701 c-3 -5 -2 -12 3 -15 5 -3 9 1 9 9 0 17 -3 19 -12 6z"/>
<path d="M4916 3687 c3 -10 9 -15 12 -12 3 3 0 11 -7 18 -10 9 -11 8 -5 -6z"/>
<path d="M4814 3662 c4 -3 14 -7 22 -8 9 -1 13 0 10 4 -4 3 -14 7 -22 8 -9 1
-13 0 -10 -4z"/>
<path d="M2376 3627 c3 -10 9 -15 12 -12 3 3 0 11 -7 18 -10 9 -11 8 -5 -6z"/>
<path d="M4750 3585 c0 -7 30 -13 34 -7 3 4 -4 9 -15 9 -10 1 -19 0 -19 -2z"/>
<path d="M2370 3559 c0 -5 5 -7 10 -4 6 3 10 8 10 11 0 2 -4 4 -10 4 -5 0 -10
-5 -10 -11z"/>
<path d="M2419 3548 c-5 -18 -6 -38 -1 -34 7 8 12 36 6 36 -2 0 -4 -1 -5 -2z"/>
<path d="M4726 3502 c-3 -5 1 -9 9 -9 8 0 12 4 9 9 -3 4 -7 8 -9 8 -2 0 -6 -4
-9 -8z"/>
<path d="M2499 3428 c-5 -18 -6 -38 -1 -34 7 8 12 36 6 36 -2 0 -4 -1 -5 -2z"/>
<path d="M4656 3378 c3 -4 11 -5 19 -1 21 7 19 12 -4 10 -11 0 -18 -5 -15 -9z"/>
<path d="M2593 3325 c0 -8 4 -12 9 -9 5 3 6 10 3 15 -9 13 -12 11 -12 -6z"/>
<path d="M4556 3327 c3 -10 9 -15 12 -12 3 3 0 11 -7 18 -10 9 -11 8 -5 -6z"/>
<path d="M2460 3326 c0 -2 8 -10 18 -17 15 -13 16 -12 3 4 -13 16 -21 21 -21
13z"/>
<path d="M2630 3320 c0 -5 5 -10 11 -10 5 0 7 5 4 10 -3 6 -8 10 -11 10 -2 0
-4 -4 -4 -10z"/>
<path d="M4530 3299 c0 -5 5 -7 10 -4 6 3 10 8 10 11 0 2 -4 4 -10 4 -5 0 -10
-5 -10 -11z"/>
<path d="M2635 3289 c-4 -6 -5 -12 -2 -15 2 -3 7 2 10 11 7 17 1 20 -8 4z"/>
<path d="M4605 3280 c-3 -6 1 -7 9 -4 18 7 21 14 7 14 -6 0 -13 -4 -16 -10z"/>
<path d="M6055 3280 c-3 -5 -1 -10 4 -10 6 0 11 5 11 10 0 6 -2 10 -4 10 -3 0
-8 -4 -11 -10z"/>
<path d="M2670 3256 c0 -2 8 -10 18 -17 15 -13 16 -12 3 4 -13 16 -21 21 -21
13z"/>
<path d="M4456 3247 c3 -10 9 -15 12 -12 3 3 0 11 -7 18 -10 9 -11 8 -5 -6z"/>
<path d="M4493 3231 c0 -11 5 -18 9 -15 4 3 5 11 1 19 -7 21 -12 19 -10 -4z"/>
<path d="M2636 3202 c-3 -5 1 -9 9 -9 8 0 12 4 9 9 -3 4 -7 8 -9 8 -2 0 -6 -4
-9 -8z"/>
<path d="M4406 3198 c3 -5 10 -6 15 -3 13 9 11 12 -6 12 -8 0 -12 -4 -9 -9z"/>
<path d="M2834 3156 c1 -8 5 -18 8 -22 4 -3 5 1 4 10 -1 8 -5 18 -8 22 -4 3
-5 -1 -4 -10z"/>
<path d="M4286 3162 c-3 -5 1 -9 9 -9 8 0 12 4 9 9 -3 4 -7 8 -9 8 -2 0 -6 -4
-9 -8z"/>
<path d="M2726 3138 c3 -5 10 -6 15 -3 13 9 11 12 -6 12 -8 0 -12 -4 -9 -9z"/>
<path d="M2893 3129 c-2 -23 3 -25 10 -4 4 8 3 16 -1 19 -4 3 -9 -4 -9 -15z"/>
<path d="M4267 3139 c7 -7 15 -10 18 -7 3 3 -2 9 -12 12 -14 6 -15 5 -6 -5z"/>
<path d="M2713 3075 c0 -8 4 -12 9 -9 4 3 8 9 8 15 0 5 -4 9 -8 9 -5 0 -9 -7
-9 -15z"/>
<path d="M2840 3080 c-9 -6 -10 -10 -3 -10 6 0 15 5 18 10 8 12 4 12 -15 0z"/>
<path d="M2980 3085 c0 -2 6 -8 13 -14 10 -8 14 -7 14 2 0 8 -6 14 -14 14 -7
0 -13 -1 -13 -2z"/>
<path d="M3070 3041 c0 -6 4 -13 10 -16 6 -3 7 1 4 9 -7 18 -14 21 -14 7z"/>
<path d="M4173 3031 c0 -11 5 -18 9 -15 4 3 5 11 1 19 -7 21 -12 19 -10 -4z"/>
<path d="M4130 3020 c0 -5 5 -10 11 -10 5 0 7 5 4 10 -3 6 -8 10 -11 10 -2 0
-4 -4 -4 -10z"/>
<path d="M3305 3000 c10 -11 20 -20 23 -20 3 0 -3 9 -13 20 -10 11 -20 20 -23
20 -3 0 3 -9 13 -20z"/>
<path d="M3695 3009 c-4 -6 -5 -12 -2 -15 2 -3 7 2 10 11 7 17 1 20 -8 4z"/>
<path d="M3935 3009 c-4 -6 -5 -12 -2 -15 2 -3 7 2 10 11 7 17 1 20 -8 4z"/>
<path d="M6390 3017 c0 -2 6 -10 14 -16 11 -9 16 -9 22 1 4 7 4 10 -1 6 -4 -4
-14 -3 -22 3 -7 6 -13 9 -13 6z"/>
<path d="M6473 3005 c0 -8 3 -13 5 -10 3 3 10 0 17 -5 8 -7 12 -5 12 5 0 8 -3
13 -5 10 -3 -3 -10 0 -17 5 -8 7 -12 5 -12 -5z"/>
<path d="M6577 3013 c-10 -9 -9 -23 1 -23 5 0 9 7 9 15 0 17 -1 18 -10 8z"/>
<path d="M3956 2993 c-6 -14 -5 -15 5 -6 7 7 10 15 7 18 -3 3 -9 -2 -12 -12z"/>
<path d="M6296 2993 c-6 -14 -5 -15 5 -6 7 7 10 15 7 18 -3 3 -9 -2 -12 -12z"/>
<path d="M3090 2980 c0 -5 5 -10 11 -10 5 0 7 5 4 10 -3 6 -8 10 -11 10 -2 0
-4 -4 -4 -10z"/>
<path d="M4010 2979 c0 -5 5 -7 10 -4 6 3 10 8 10 11 0 2 -4 4 -10 4 -5 0 -10
-5 -10 -11z"/>
<path d="M6626 2982 c-3 -5 1 -9 9 -9 8 0 12 4 9 9 -3 4 -7 8 -9 8 -2 0 -6 -4
-9 -8z"/>
<path d="M2833 2965 c0 -8 4 -12 9 -9 5 3 6 10 3 15 -9 13 -12 11 -12 -6z"/>
<path d="M6356 2967 c3 -10 9 -15 12 -12 3 3 0 11 -7 18 -10 9 -11 8 -5 -6z"/>
<path d="M6554 2960 c0 -13 4 -16 10 -10 7 7 7 13 0 20 -6 6 -10 3 -10 -10z"/>
<path d="M3226 2962 c-3 -5 1 -9 9 -9 8 0 12 4 9 9 -3 4 -7 8 -9 8 -2 0 -6 -4
-9 -8z"/>
<path d="M3270 2959 c0 -5 5 -7 10 -4 6 3 10 8 10 11 0 2 -4 4 -10 4 -5 0 -10
-5 -10 -11z"/>
<path d="M6230 2959 c0 -5 5 -7 10 -4 6 3 10 8 10 11 0 2 -4 4 -10 4 -5 0 -10
-5 -10 -11z"/>
<path d="M6590 2960 c0 -5 5 -10 11 -10 5 0 7 5 4 10 -3 6 -8 10 -11 10 -2 0
-4 -4 -4 -10z"/>
<path d="M3895 2951 c-3 -5 -2 -12 3 -15 5 -3 9 1 9 9 0 17 -3 19 -12 6z"/>
<path d="M3335 2940 c3 -5 8 -10 11 -10 2 0 4 5 4 10 0 6 -5 10 -11 10 -5 0
-7 -4 -4 -10z"/>
<path d="M3975 2941 c-3 -5 -2 -12 3 -15 5 -3 9 1 9 9 0 17 -3 19 -12 6z"/>
<path d="M4035 2941 c-3 -5 -2 -12 3 -15 5 -3 9 1 9 9 0 17 -3 19 -12 6z"/>
<path d="M3234 2922 c4 -3 14 -7 22 -8 9 -1 13 0 10 4 -4 3 -14 7 -22 8 -9 1
-13 0 -10 -4z"/>
<path d="M3375 2920 c-3 -5 -1 -10 4 -10 6 0 11 5 11 10 0 6 -2 10 -4 10 -3 0
-8 -4 -11 -10z"/>
<path d="M3519 2913 c-13 -16 -12 -17 4 -4 16 13 21 21 13 21 -2 0 -10 -8 -17
-17z"/>
<path d="M6595 2921 c-3 -5 -2 -12 3 -15 5 -3 9 1 9 9 0 17 -3 19 -12 6z"/>
<path d="M3550 2905 c0 -7 30 -13 34 -7 3 4 -4 9 -15 9 -10 1 -19 0 -19 -2z"/>
<path d="M3650 2879 c0 -5 5 -7 10 -4 6 3 10 8 10 11 0 2 -4 4 -10 4 -5 0 -10
-5 -10 -11z"/>
<path d="M3635 2760 c3 -5 8 -10 11 -10 2 0 4 5 4 10 0 6 -5 10 -11 10 -5 0
-7 -4 -4 -10z"/>
</g>
</svg>
