<?xml version="1.0" standalone="no"?>
<!DOCTYPE svg PUBLIC "-//W3C//DTD SVG 20010904//EN"
 "http://www.w3.org/TR/2001/REC-SVG-20010904/DTD/svg10.dtd">
<svg version="1.0" xmlns="http://www.w3.org/2000/svg"
 width="1024.000000pt" height="1024.000000pt" viewBox="0 0 1024.000000 1024.000000"
 preserveAspectRatio="xMidYMid meet">
<metadata>
Created by potrace 1.11, written by Peter Selinger 2001-2013
</metadata>
<g transform="translate(0.000000,1024.000000) scale(0.100000,-0.100000)"
fill="#000000" stroke="none">
<path d="M4780 9799 c-1439 -107 -2744 -864 -3548 -2057 -427 -633 -686 -1339
-778 -2122 -35 -295 -29 -790 12 -1108 200 -1548 1171 -2906 2569 -3596 724
-358 1476 -517 2284 -485 887 36 1769 333 2490 841 325 228 728 603 954 887
613 770 955 1625 1037 2596 13 156 13 545 0 716 -88 1121 -564 2161 -1355
2955 -385 385 -773 665 -1250 899 -558 274 -1130 429 -1750 475 -158 11 -508
11 -665 -1z m160 -4053 c0 -1607 -1 -1668 -20 -1778 -86 -501 -439 -911 -924
-1073 -177 -58 -262 -67 -631 -62 -305 4 -325 5 -420 30 -471 122 -832 490
-949 967 -22 91 -46 257 -46 320 0 20 4 20 489 20 l489 0 16 -67 c24 -95 72
-188 126 -243 64 -66 100 -73 365 -68 207 3 211 3 262 30 106 56 186 155 223
276 20 63 20 96 20 1688 l0 1624 500 0 500 0 0 -1664z m3350 1154 l0 -510
-565 0 -565 0 0 -1780 0 -1780 -495 0 -495 0 0 1780 0 1780 -557 2 -558 3 -3
495 c-1 272 0 501 3 508 3 9 337 12 1620 12 l1615 0 0 -510z"/>
</g>
</svg>
